<?xml version="1.0" standalone="no"?>
<!DOCTYPE svg PUBLIC "-//W3C//DTD SVG 20010904//EN"
 "http://www.w3.org/TR/2001/REC-SVG-20010904/DTD/svg10.dtd">
<svg version="1.0" xmlns="http://www.w3.org/2000/svg"
 width="219.000000pt" height="161.000000pt" viewBox="0 0 219.000000 161.000000"
 preserveAspectRatio="xMidYMid meet">

<g transform="translate(0.000000,161.000000) scale(0.100000,-0.100000)"
fill="#FFFFFF" stroke="none">
<path d="M979 1583 c-5 -16 -12 -34 -14 -40 -2 -7 -13 -13 -24 -13 -18 0 -71
-46 -71 -61 0 -17 33 -2 47 22 9 15 26 30 37 33 12 3 116 6 231 5 l210 0 65
-72 65 -72 -34 -3 -34 -3 32 -20 c17 -10 46 -20 64 -20 25 -1 27 -3 9 -6 -22
-4 -23 -5 -5 -18 10 -8 28 -15 40 -15 l22 0 -22 33 c-40 59 -90 116 -97 112
-4 -2 -24 14 -45 35 -22 22 -34 40 -28 40 6 0 23 -16 38 -36 15 -19 30 -33 33
-29 3 3 -12 23 -33 45 -27 27 -48 40 -66 40 -23 0 -28 5 -31 28 -2 22 -8 28
-35 30 -25 2 -33 -1 -33 -12 0 -9 5 -16 10 -16 6 0 10 -6 10 -14 0 -12 -25
-13 -147 -9 -82 3 -150 7 -152 9 -2 2 3 12 12 22 20 22 13 32 -20 32 -17 0
-26 -8 -34 -27z m364 0 c-7 -2 -19 -2 -25 0 -7 3 -2 5 12 5 14 0 19 -2 13 -5z
m-333 -28 c0 -8 -7 -15 -15 -15 -8 0 -15 7 -15 15 0 8 7 15 15 15 8 0 15 -7
15 -15z m350 0 c0 -8 -7 -15 -15 -15 -16 0 -20 12 -8 23 11 12 23 8 23 -8z
m194 -184 c3 -5 -6 -11 -21 -14 -26 -5 -26 -4 -8 9 22 17 22 17 29 5z"/>
<path d="M849 1439 c-12 -24 -12 -28 7 -25 14 2 33 23 34 37 0 14 -32 4 -41
-12z"/>
<path d="M786 1321 c-44 -91 -63 -109 -68 -64 l-3 28 -116 3 c-144 3 -169 -4
-169 -53 0 -30 -3 -35 -24 -35 -22 0 -24 5 -31 76 -6 69 -9 76 -33 85 -15 6
-45 8 -67 4 -35 -5 -145 11 -207 31 -14 4 -18 -1 -18 -21 0 -38 16 -62 47 -70
l28 -8 -25 -7 c-23 -6 -25 -11 -22 -53 3 -41 1 -47 -17 -47 -11 0 -26 -10 -32
-22 -20 -37 -29 -327 -22 -711 l6 -358 29 -38 30 -38 669 -7 c368 -3 816 -3
996 0 299 7 327 9 342 26 8 10 25 18 36 18 11 0 31 7 43 16 l22 15 0 569 0
569 -22 15 c-12 9 -34 16 -48 15 -24 -1 -24 -1 5 -11 43 -15 55 -27 55 -54 0
-21 -5 -24 -34 -24 -19 0 -38 -4 -41 -10 -3 -5 -26 -10 -51 -10 l-45 0 3 -52
c2 -37 -1 -53 -9 -54 -7 -1 -23 -2 -34 -3 -18 -1 -19 -3 -9 -16 7 -9 19 -14
27 -11 8 3 12 2 8 -3 -3 -5 6 -18 20 -29 21 -17 34 -42 21 -42 -3 0 -37 23
-77 50 -80 55 -111 65 -85 28 31 -43 16 -53 -19 -13 -18 22 -36 37 -39 34 -4
-4 28 -145 48 -206 4 -13 3 -23 -2 -23 -11 0 -24 26 -66 140 l-35 95 -1 -63
c0 -40 -4 -61 -10 -57 -5 3 -10 32 -10 63 0 31 -4 52 -8 46 -5 -5 -28 -58 -52
-118 -49 -122 -62 -125 -32 -8 38 146 38 143 0 94 -41 -53 -49 -39 -13 23 15
25 24 45 21 45 -4 0 -50 -29 -103 -65 -94 -62 -124 -75 -90 -37 10 10 14 22
10 27 -5 4 -3 5 3 2 15 -9 56 22 48 36 -4 7 -4 9 1 5 7 -7 26 4 85 51 l25 20
-49 -14 c-58 -18 -66 -18 -66 -5 0 5 18 15 40 21 36 11 38 13 22 25 -10 8 -45
14 -87 14 -38 0 -81 3 -93 7 -37 9 -6 23 58 24 l55 1 -50 23 c-32 14 -64 22
-88 20 -20 -2 -35 0 -32 5 9 14 -24 20 -109 20 -46 0 -107 -7 -137 -16 -77
-22 -216 -100 -270 -151 l-47 -44 -276 -6 -276 -6 0 30 c0 37 -12 43 -90 43
-79 0 -90 -5 -90 -46 0 -19 -5 -34 -11 -34 -6 0 -8 7 -5 16 3 9 6 37 6 62 0
81 -18 76 332 83 327 6 350 9 391 52 21 23 30 24 297 36 461 20 482 22 468 38
-10 12 -42 14 -183 10 -221 -6 -524 -25 -537 -33 -6 -4 -8 2 -6 12 3 17 18 20
163 25 88 4 230 7 315 9 160 2 258 16 150 21 l-55 2 45 7 c25 4 -94 5 -264 2
l-308 -5 11 21 c14 27 14 29 -5 29 -10 0 -31 -31 -58 -86z m209 26 l160 -3
-172 -2 c-154 -2 -172 0 -166 14 3 10 8 12 12 5 4 -6 68 -12 166 -14z m1125
-277 c0 -15 -7 -20 -25 -20 -28 0 -25 26 3 33 10 3 18 5 20 6 1 0 2 -8 2 -19z
m-785 -70 l20 -9 -20 -1 c-15 -1 -12 -4 10 -11 17 -5 36 -7 43 -4 7 3 11 1 8
-4 -7 -11 41 -44 53 -37 4 3 19 -6 32 -21 13 -14 18 -23 12 -19 -16 9 -17 -6
-1 -22 8 -8 15 -9 25 -1 7 7 13 10 14 8 6 -27 9 -83 11 -174 3 -107 2 -112
-30 -178 -53 -107 -147 -165 -284 -174 -102 -8 -149 10 -215 80 -37 39 -56 70
-72 119 -28 83 -31 196 -8 251 9 21 16 43 14 50 -1 6 4 11 12 12 8 0 16 6 19
14 3 8 0 11 -7 7 -20 -13 -11 0 21 30 18 16 26 21 19 12 -7 -10 -9 -18 -3 -18
13 0 33 25 26 33 -7 6 40 32 95 52 40 15 175 18 206 5z m829 -820 c12 -107 38
-100 -357 -99 -188 1 -328 4 -312 9 52 12 98 36 169 84 l68 47 177 8 c97 4
192 9 212 9 l36 2 7 -60z m-1327 -16 c32 -26 75 -55 95 -64 37 -16 26 -17
-369 -25 -515 -10 -512 -10 -520 -1 -4 4 -10 36 -13 72 l-5 64 377 0 378 0 57
-46z m293 -114 c41 -4 -136 -7 -395 -7 -259 0 -511 -4 -561 -8 -64 -5 -93 -4
-98 4 -4 6 -2 9 6 6 7 -2 60 -1 118 4 129 10 827 11 930 1z m494 1 c11 -16
-39 -21 -224 -19 l-185 1 80 12 c95 15 321 19 329 6z"/>
<path d="M1135 986 c-39 -12 -106 -45 -94 -46 4 0 28 10 55 22 30 13 82 24
134 28 l85 7 -70 1 c-38 0 -88 -5 -110 -12z"/>
<path d="M1450 926 c0 -2 8 -10 18 -17 15 -13 16 -12 3 4 -13 16 -21 21 -21
13z"/>
<path d="M1895 1261 c-3 -6 24 -10 65 -10 38 0 70 4 70 9 0 13 -127 13 -135 1z"/>
<path d="M1870 1200 c-13 -8 -13 -10 2 -10 9 0 25 -3 35 -7 16 -6 16 -5 4 10
-16 20 -20 20 -41 7z"/>
<path d="M1885 1140 c3 -5 10 -10 16 -10 5 0 9 5 9 10 0 6 -7 10 -16 10 -8 0
-12 -4 -9 -10z"/>
<path d="M1850 1110 c8 -5 20 -10 25 -10 6 0 3 5 -5 10 -8 5 -19 10 -25 10 -5
0 -3 -5 5 -10z"/>
</g>
</svg>
