<!DOCTYPE svg PUBLIC "-//W3C//DTD SVG 1.1//EN" "http://www.w3.org/Graphics/SVG/1.1/DTD/svg11.dtd">
<!-- Uploaded to: SVG Repo, www.svgrepo.com, Transformed by: SVG Repo Mixer Tools -->
<svg width="800px" height="800px" viewBox="0 0 512 512" version="1.1" xml:space="preserve" xmlns="http://www.w3.org/2000/svg" xmlns:xlink="http://www.w3.org/1999/xlink" fill="#000000">
<g id="SVGRepo_bgCarrier" stroke-width="0"/>
<g id="SVGRepo_tracerCarrier" stroke-linecap="round" stroke-linejoin="round"/>
<g id="SVGRepo_iconCarrier"> <style type="text/css"> .st0{fill:#000;} </style> <g id="Layer_1"/> <g id="Layer_2"> <g> <path class="st0" d="M319.63,191.33l-5.34-19.8c-1.88-6.98-8.22-11.83-15.45-11.83h-88.12c-7.23,0-13.56,4.85-15.45,11.83 l-5.34,19.8h-38.06c-8.84,0-16,7.16-16,16V336.3c0,8.84,7.16,16,16,16h205.81c8.84,0,16-7.16,16-16V207.33c0-8.84-7.16-16-16-16 H319.63z M341.68,320.3H167.88v-96.97h34.31c7.23,0,13.56-4.85,15.45-11.83l5.34-19.8h63.61l5.34,19.8 c1.88,6.98,8.22,11.83,15.45,11.83h34.31V320.3z"/> <path class="st0" d="M254.78,217.5c-25.61,0-46.45,20.84-46.45,46.45s20.84,46.45,46.45,46.45s46.45-20.84,46.45-46.45 S280.39,217.5,254.78,217.5z M254.78,278.4c-7.97,0-14.45-6.48-14.45-14.45s6.48-14.45,14.45-14.45s14.45,6.48,14.45,14.45 S262.75,278.4,254.78,278.4z"/> <path class="st0" d="M46.29,265.58c4.7,4.58,8.76,8.54,15.63,8.65c0.08,0,0.16,0,0.23,0c4.24,0,8.36-1.7,11.36-4.7l29.43-29.43 l-21.56-21.56c17.24-79.88,88.43-139.92,173.39-139.92c67.45,0,128.2,37.45,158.54,97.74c3.97,7.89,13.59,11.07,21.49,7.1 c7.89-3.97,11.07-13.59,7.1-21.49c-17.18-34.13-43.38-62.94-75.77-83.32c-33.31-20.96-71.82-32.03-111.35-32.03 c-103.76,0-190.11,75.87-206.55,175.03c-0.18-0.19-0.37-0.39-0.55-0.58c-6.06-6.43-16.19-6.73-22.62-0.67 c-6.43,6.06-6.73,16.19-0.67,22.62c0.25,0.27,6.32,6.7,12.67,13.25C40.85,260.18,43.96,263.31,46.29,265.58z"/> <path class="st0" d="M457.84,217.49c-3.06-3.06-7.29-4.77-11.6-4.7c-2.58,0.04-4.77,0.62-6.74,1.58 c-0.29,0.13-0.56,0.29-0.84,0.44c-0.04,0.02-0.09,0.05-0.13,0.07c-0.65,0.36-1.28,0.76-1.87,1.2c-2.08,1.49-4,3.36-6.05,5.36 c-2.33,2.27-5.43,5.41-9.22,9.31c-6.35,6.55-12.42,12.98-12.67,13.25c-6.06,6.43-5.76,16.56,0.67,22.62 c6.38,6.02,16.41,5.76,22.48-0.54c-5.24,93.14-82.66,167.31-177.09,167.31c-78.34,0-146.47-50.24-169.53-125.02 c-2.6-8.44-11.56-13.18-20.01-10.57c-8.44,2.6-13.18,11.56-10.57,20.01c12.91,41.85,39.42,79.44,74.63,105.84 c36.43,27.31,79.82,41.75,125.48,41.75c111.2,0,202.42-87.14,208.99-196.72l0.88,0.88c3.12,3.12,7.22,4.69,11.31,4.69 s8.19-1.56,11.31-4.69c6.25-6.25,6.25-16.38,0-22.63L457.84,217.49z"/> </g> </g> </g>
</svg>