<?xml version="1.0" encoding="utf-8"?><!-- Uploaded to: SVG Repo, www.svgrepo.com, Generator: SVG Repo Mixer Tools -->
<svg width="800px" height="800px" viewBox="0 0 24 24" fill="none" xmlns="http://www.w3.org/2000/svg">
<path d="M7.76953 4.58009C8.57706 3.74781 9.54639 3.08958 10.6178 2.64588C11.6892 2.20219 12.84 1.98233 13.9995 2.00001C18.4195 2.00001 21.9995 5.10005 21.9995 8.92005C21.9792 9.98209 21.7021 11.0234 21.1919 11.9551C20.6817 12.8867 19.9535 13.681 19.0696 14.27V16.75" stroke="#000000" stroke-width="1.5" stroke-linecap="round" stroke-linejoin="round"/>
<path d="M16 13.64C16 10.29 12.87 7.58008 9 7.58008C5.13 7.58008 2 10.29 2 13.64C2.01941 14.5684 2.26227 15.4785 2.70789 16.2931C3.1535 17.1077 3.78881 17.803 4.56006 18.3201V20.49C4.55903 20.7858 4.64489 21.0755 4.80701 21.3229C4.96912 21.5703 5.20032 21.7647 5.47192 21.8818C5.74353 21.999 6.04362 22.0338 6.33484 21.9819C6.62606 21.9301 6.89553 21.7938 7.10999 21.5901L9.10999 19.6901C12.94 19.6201 16 16.94 16 13.64Z" stroke="#000000" stroke-width="1.5" stroke-linecap="round" stroke-linejoin="round"/>
</svg>