<!DOCTYPE svg PUBLIC "-//W3C//DTD SVG 1.1//EN" "http://www.w3.org/Graphics/SVG/1.1/DTD/svg11.dtd">
<!-- Uploaded to: SVG Repo, www.svgrepo.com, Transformed by: SVG Repo Mixer Tools -->
<svg fill="#ffffff" version="1.1" id="Capa_1" xmlns="http://www.w3.org/2000/svg" xmlns:xlink="http://www.w3.org/1999/xlink" viewBox="0 0 435 435" xml:space="preserve" width="800px" height="800px" stroke="#ffffff">
<g id="SVGRepo_bgCarrier" stroke-width="0"/>
<g id="SVGRepo_tracerCarrier" stroke-linecap="round" stroke-linejoin="round"/>
<g id="SVGRepo_iconCarrier"> <g id="XMLID_19_"> <path id="XMLID_863_" d="M292.5,105h-150c-13.807,0-25,11.192-25,25v50c0,12.313,8.903,22.538,20.621,24.609l8.977,206.477 C147.68,424.458,158.69,435,172.075,435h90.851c13.385,0,24.395-10.542,24.977-23.914l8.977-206.477 C308.597,202.538,317.5,192.313,317.5,180v-50C317.5,116.192,306.307,105,292.5,105z M258.138,405h-81.276l-9.814-225.742 l-19.547-3.455V135h140v40.803l-19.547,3.455L258.138,405z"/> <rect id="XMLID_866_" x="202.5" y="290" width="30" height="80"/> <path id="XMLID_867_" d="M217.5,70c8.284,0,15-6.716,15-15V15c0-8.284-6.716-15-15-15c-8.284,0-15,6.716-15,15v40 C202.5,63.284,209.216,70,217.5,70z"/> <path id="XMLID_868_" d="M144.226,66.029c2.255,6.028,7.974,9.749,14.051,9.749c1.746,0,3.522-0.307,5.253-0.954 c7.759-2.902,11.697-11.546,8.794-19.305L158.31,18.055c-2.903-7.761-11.548-11.696-19.304-8.795 c-7.759,2.902-11.697,11.546-8.794,19.305L144.226,66.029z"/> <path id="XMLID_869_" d="M271.47,74.824c1.732,0.647,3.506,0.954,5.253,0.954c6.077,0,11.797-3.722,14.051-9.749l14.014-37.465 c2.902-7.759-1.035-16.402-8.794-19.305c-7.756-2.9-16.402,1.035-19.304,8.795L262.676,55.52 C259.773,63.278,263.711,71.922,271.47,74.824z"/> </g> </g>
</svg>